<svg width="36" height="24" viewBox="0 0 36 24" fill="none" xmlns="http://www.w3.org/2000/svg">
<path d="M21.4536 2.50055C21.3302 2.74734 21.2068 2.99413 20.6496 4.29353C20.0925 5.59293 19.1053 7.93746 17.5479 10.7494C15.9905 13.5613 13.8928 16.7696 11.3575 20.4491" stroke="#FFDAE5" stroke-width="5" stroke-linecap="round"/>
<path d="M11.3575 20.4491C10.49 20.4528 8.50069 18.4673 6.38239 14.3615C4.49193 10.6974 2.63376 7.74676 2.5085 5.87899C2.45783 5.12348 2.63002 4.7516 3.12548 4.99278C7.4719 7.10859 9.48038 12.2152 10.4806 14.083C12.3009 17.4819 12.8532 18.9459 13.659 20.3201C14.0531 20.9921 16.0802 20.6996 20.9132 19.8957C30.0174 18.3812 34.799 16.7098 32.935 16.8949C28.8216 17.3034 26.696 18.2055 21.7228 19.1366C19.2137 19.4507 17.2282 19.948 15.1117 20.4453C14.2293 20.6959 13.7357 20.9427 13.2271 21.1969" stroke="#FFDAE5" stroke-width="5" stroke-linecap="round"/>
</svg>
