<svg width="28" height="27" viewBox="0 0 28 27" fill="none" xmlns="http://www.w3.org/2000/svg">
<path d="M3.99638 2.50006C5.61175 3.8649 7.60104 7.09189 10.0914 10.9564C14.6748 18.0689 15.7078 19.94 16.7062 21.6265C17.2439 22.5348 17.7046 23.4363 18.3253 23.8121C20.0722 24.8697 20.4492 20.5832 21.1933 18.6481C21.8833 16.8538 23.5603 14.6078 24.497 12.6017C24.6749 12.2206 24.8092 11.8557 24.8111 11.9735C24.839 13.7316 24.3156 15.2061 23.4444 16.8888C22.2346 19.2252 20.9577 21.0618 19.892 22.5631C18.2094 23.3129 14.4963 23.8139 8.56952 22.0789C6.8831 21.3311 4.90877 20.3439 2.50067 19.3268" stroke="#FFDAE5" stroke-width="5" stroke-linecap="round"/>
</svg>
