<svg width="12" height="12" viewBox="0 0 12 12" fill="none" xmlns="http://www.w3.org/2000/svg">
<g clip-path="url(#clip0_673_104)">
<path d="M4.26982 11.2406C4.44046 11.1672 4.55998 10.9975 4.55998 10.8V9.50398C4.55998 9.4567 4.56382 9.4075 4.56982 9.35758C4.56646 9.35854 4.56334 9.35926 4.55998 9.35998C4.55998 9.35998 3.83998 9.35998 3.69598 9.35998C3.33598 9.35998 3.02398 9.21598 2.87998 8.92798C2.71198 8.61598 2.63998 8.08798 2.20798 7.79998C2.13598 7.75198 2.18398 7.67998 2.32798 7.67998C2.47198 7.70398 2.78398 7.89598 2.97598 8.15998C3.19198 8.42398 3.40798 8.63998 3.79198 8.63998C4.38886 8.63998 4.70878 8.60998 4.90126 8.50678C5.12542 8.17342 5.43574 7.91998 5.75998 7.91998V7.91398C4.39966 7.8703 3.53062 7.41814 3.12598 6.71998C2.24638 6.73006 1.48054 6.81718 1.0435 6.88966C1.02958 6.81118 1.01758 6.73222 1.00726 6.65278C1.43854 6.58174 2.16958 6.4975 3.01006 6.48142C2.98318 6.41518 2.9599 6.34726 2.94022 6.27766C2.09758 6.23494 1.37038 6.2683 0.97534 6.30094C0.97054 6.22126 0.96406 6.14182 0.9631 6.06118C1.35886 6.02878 2.06638 5.99638 2.88742 6.03454C2.86846 5.91454 2.85622 5.7919 2.85622 5.66422C2.85622 5.25622 3.00022 4.82422 3.26422 4.46422C3.14422 4.05622 2.97622 3.19222 3.31222 2.88022C3.96022 2.88022 4.41622 3.19222 4.63222 3.38422C5.03998 3.21598 5.49598 3.11998 5.99998 3.11998C6.50398 3.11998 6.95998 3.21598 7.34398 3.38398C7.55998 3.19198 8.01598 2.87998 8.66398 2.87998C9.02398 3.21598 8.83198 4.07998 8.71198 4.46398C8.97598 4.82398 9.11998 5.23198 9.09598 5.66398C9.09598 5.78014 9.08518 5.89222 9.06958 6.00214C9.90934 5.96086 10.6361 5.99398 11.0385 6.02662C11.0381 6.1075 11.0306 6.18646 11.0263 6.26638C10.6253 6.23326 9.8803 6.19918 9.02014 6.24502C8.99878 6.32566 8.97286 6.40414 8.94214 6.48022C9.79318 6.49126 10.5417 6.57358 10.9937 6.64558C10.9833 6.72526 10.9713 6.80422 10.9574 6.88246C10.4985 6.80902 9.71638 6.7231 8.82646 6.71878C8.42686 7.4095 7.57366 7.85998 6.23998 7.91254V7.91998C6.86398 7.91998 7.43998 8.85598 7.43998 9.50398V10.8C7.43998 10.9975 7.5595 11.1672 7.73014 11.2406C9.92878 10.5129 11.52 8.43934 11.52 5.99998C11.52 2.9563 9.0439 0.47998 5.99998 0.47998C2.95606 0.47998 0.47998 2.9563 0.47998 5.99998C0.47998 8.43934 2.07118 10.5129 4.26982 11.2406Z" fill="black"/>
</g>
<defs>
<clipPath id="clip0_673_104">
<rect width="12" height="12" fill="white"/>
</clipPath>
</defs>
</svg>
