<svg width="15" height="15" viewBox="0 0 15 15" fill="none" xmlns="http://www.w3.org/2000/svg">
<path d="M11.5625 14.5625H3.4375C2.91969 14.5625 2.5 14.1428 2.5 13.625V2.375C2.5 1.85719 2.91969 1.4375 3.4375 1.4375H9.375L12.5 4.5625V13.625C12.5 14.1428 12.0803 14.5625 11.5625 14.5625Z" fill="#43A047"/>
<path d="M12.5 4.0625H9.375V0.9375L12.5 4.0625Z" fill="#C8E6C9"/>
<path d="M9.375 4.0625L12.5 7.1875V4.0625H9.375Z" fill="#2E7D32"/>
<path d="M9.6875 7.1875H5.3125H4.6875V7.8125V8.4375V9.0625V9.6875V10.3125V10.9375V11.5625H10.3125V10.9375V10.3125V9.6875V9.0625V8.4375V7.8125V7.1875H9.6875ZM5.3125 7.8125H6.5625V8.4375H5.3125V7.8125ZM5.3125 9.0625H6.5625V9.6875H5.3125V9.0625ZM5.3125 10.3125H6.5625V10.9375H5.3125V10.3125ZM9.6875 10.9375H7.1875V10.3125H9.6875V10.9375ZM9.6875 9.6875H7.1875V9.0625H9.6875V9.6875ZM9.6875 8.4375H7.1875V7.8125H9.6875V8.4375Z" fill="#E8F5E9"/>
</svg>
