<svg width="11" height="13" viewBox="0 0 11 13" fill="none" xmlns="http://www.w3.org/2000/svg">
<path d="M10.7152 3.2697C10.7152 3.15152 10.6758 3.03333 10.5576 2.95455C10.5576 2.95455 10.5576 2.95455 10.5182 2.91515C10.5182 2.91515 10.4788 2.91515 10.4788 2.87576L5.59394 0.0787879H5.55455C5.47576 1.76105e-08 5.39697 0 5.31818 0C5.27879 0 5.23939 8.80523e-09 5.2 0.039394C5.16061 0.039394 5.16061 0.0787879 5.12121 0.0787879L0.236364 2.87576C0.157576 2.91515 0.157576 2.95455 0.118182 2.99394C0.0393939 3.07273 0 3.15152 0 3.2697V8.90303C0 9.06061 0.0787878 9.21818 0.236364 9.29697L5.12121 12.1333C5.12121 12.1333 5.12121 12.1333 5.16061 12.1333C5.2 12.1333 5.2 12.1727 5.23939 12.1727C5.27879 12.1727 5.31818 12.1727 5.31818 12.1727C5.35758 12.1727 5.39697 12.1727 5.39697 12.1727C5.43636 12.1727 5.43636 12.1727 5.47576 12.1333C5.47576 12.1333 5.47576 12.1333 5.51515 12.1333L10.4788 9.33636C10.6364 9.25758 10.7152 9.1 10.7152 8.94242V3.2697ZM1.9303 3.11212L5.23939 1.18182C5.31818 1.14242 5.39697 1.14242 5.43636 1.18182L8.74545 3.11212C8.90303 3.19091 8.90303 3.38788 8.74545 3.46667L5.43636 5.39697C5.35758 5.43636 5.27879 5.43636 5.23939 5.39697L1.9303 3.46667C1.77273 3.38788 1.77273 3.19091 1.9303 3.11212ZM4.76667 10.4C4.76667 10.5576 4.60909 10.6758 4.45152 10.597L1.14242 8.66667C1.06364 8.62727 1.02424 8.54848 1.02424 8.4697V4.64849C1.02424 4.49091 1.18182 4.37273 1.33939 4.45152L4.64848 6.38182C4.72727 6.42121 4.76667 6.5 4.76667 6.57879V10.4ZM9.69091 8.4697C9.69091 8.54848 9.65152 8.62727 9.57273 8.66667L6.26364 10.597C6.10606 10.6758 5.94849 10.5576 5.94849 10.4V6.57879C5.94849 6.5 5.98788 6.42121 6.06667 6.38182L9.37576 4.45152C9.53333 4.37273 9.69091 4.49091 9.69091 4.64849V8.4697Z" fill="black"/>
</svg>
