<svg width="11" height="13" viewBox="0 0 11 13" fill="none" xmlns="http://www.w3.org/2000/svg">
<g clip-path="url(#clip0_1_81)">
<path d="M7.87441 9.72847C8.16316 9.43685 8.63055 9.43761 8.91837 9.73017C9.20619 10.0227 9.20544 10.4963 8.91669 10.7879L7.63453 12.0829C6.45164 13.2777 4.52274 13.295 3.31989 12.1231C3.31293 12.1164 2.77734 11.5852 1.01044 9.83278C-0.165032 8.66698 -0.282138 6.80154 0.824014 5.60361L2.88642 3.36996C3.98426 2.18092 6.00797 2.05095 7.26318 3.07769L9.13634 4.60994C9.45356 4.86942 9.50311 5.34034 9.24702 5.66176C8.99091 5.98317 8.52616 6.03337 8.20894 5.77389L6.33579 4.24164C5.67933 3.70468 4.531 3.77843 3.96456 4.39194L1.90212 6.62561C1.36362 7.20879 1.4226 8.14828 2.04317 8.76376C3.34064 10.0506 4.34059 11.0423 4.34175 11.0434C4.9671 11.6527 5.97826 11.6436 6.59225 11.0234L7.87441 9.72847Z" fill="black"/>
<path fill-rule="evenodd" clip-rule="evenodd" d="M4.75972 8.43262C4.35204 8.43262 4.02153 8.09775 4.02153 7.68466C4.02153 7.27158 4.35204 6.93671 4.75972 6.93671H10.2039C10.6116 6.93671 10.9421 7.27158 10.9421 7.68466C10.9421 8.09775 10.6116 8.43262 10.2039 8.43262H4.75972Z" fill="black"/>
<path fill-rule="evenodd" clip-rule="evenodd" d="M5.77926 0.236969C6.05779 -0.0646861 6.52493 -0.080447 6.82264 0.201766C7.12036 0.483979 7.13592 0.957298 6.85739 1.25895L1.90214 6.62566C1.36363 7.20879 1.4226 8.14828 2.04314 8.76378L4.33155 11.0335C4.62288 11.3225 4.62787 11.796 4.34269 12.0912C4.0575 12.3864 3.59012 12.3915 3.29878 12.1025L1.01037 9.83277C-0.165033 8.66691 -0.282138 6.80147 0.824063 5.60362L5.77926 0.236969Z" fill="black"/>
</g>
<defs>
<clipPath id="clip0_1_81">
<rect width="11" height="13" fill="white"/>
</clipPath>
</defs>
</svg>
