<svg width="20" height="20" viewBox="0 0 20 20" fill="none" xmlns="http://www.w3.org/2000/svg">
<g clip-path="url(#clip0_1_131)">
<path d="M9.94849 6.63233C10.8604 6.63233 11.6066 5.88619 11.6066 4.97424C11.6066 4.0623 10.8604 3.31616 9.94849 3.31616C9.03654 3.31616 8.29041 4.0623 8.29041 4.97424C8.29041 5.88619 9.03654 6.63233 9.94849 6.63233ZM9.94849 8.29041C9.03654 8.29041 8.29041 9.03655 8.29041 9.94849C8.29041 10.8604 9.03654 11.6066 9.94849 11.6066C10.8604 11.6066 11.6066 10.8604 11.6066 9.94849C11.6066 9.03655 10.8604 8.29041 9.94849 8.29041ZM9.94849 13.2647C9.03654 13.2647 8.29041 14.0108 8.29041 14.9227C8.29041 15.8347 9.03654 16.5808 9.94849 16.5808C10.8604 16.5808 11.6066 15.8347 11.6066 14.9227C11.6066 14.0108 10.8604 13.2647 9.94849 13.2647Z" fill="#323232" fill-opacity="0.2"/>
</g>
<defs>
<clipPath id="clip0_1_131">
<rect width="19.897" height="19.897" fill="white"/>
</clipPath>
</defs>
</svg>
