<svg width="20" height="20" viewBox="0 0 20 20" fill="none" xmlns="http://www.w3.org/2000/svg">
<g clip-path="url(#clip0_1_93)">
<path d="M16.2 10.825L16.1917 10.8417C16.225 10.5667 16.2583 10.2833 16.2583 9.99999C16.2583 9.71666 16.2333 9.44999 16.2 9.17499L16.2083 9.19166L18.2417 7.59166L16.2167 4.07499L13.825 5.04166L13.8333 5.04999C13.4 4.71666 12.925 4.43332 12.4083 4.21666H12.4167L12.0333 1.66666H7.975L7.60833 4.22499H7.61667C7.1 4.44166 6.625 4.72499 6.19167 5.05832L6.2 5.04999L3.8 4.07499L1.76667 7.59166L3.8 9.19166L3.80833 9.17499C3.775 9.44999 3.75 9.71666 3.75 9.99999C3.75 10.2833 3.775 10.5667 3.81667 10.8417L3.80833 10.825L2.05833 12.2L1.78333 12.4167L3.80833 15.9167L6.20833 14.9583L6.19167 14.925C6.63333 15.2667 7.10833 15.55 7.63333 15.7667H7.60833L7.98333 18.3333H12.025C12.025 18.3333 12.05 18.1833 12.075 17.9833L12.3917 15.775H12.3833C12.9 15.5583 13.3833 15.275 13.825 14.9333L13.8083 14.9667L16.2083 15.925L18.2333 12.425C18.2333 12.425 18.1167 12.325 17.9583 12.2083L16.2 10.825ZM10 12.9167C8.39167 12.9167 7.08333 11.6083 7.08333 9.99999C7.08333 8.39166 8.39167 7.08332 10 7.08332C11.6083 7.08332 12.9167 8.39166 12.9167 9.99999C12.9167 11.6083 11.6083 12.9167 10 12.9167Z" fill="#323232" fill-opacity="0.3"/>
</g>
<defs>
<clipPath id="clip0_1_93">
<rect width="20" height="20" fill="white"/>
</clipPath>
</defs>
</svg>
